<?xml version="1.0" encoding="UTF-8"?>
<svg xmlns="http://www.w3.org/2000/svg" xmlns:xlink="http://www.w3.org/1999/xlink" viewBox="0 0 200 68.8">
  <defs>
    <style>
      .cls-1 {
        fill: #e5e7e8;
        mix-blend-mode: multiply;
      }

      .cls-2 {
        fill: #fff;
      }

      .cls-3 {
        fill: #ff4469;
      }

      .cls-4 {
        fill: #b47c0c;
      }

      .cls-5 {
        clip-path: url(#clippath-2);
      }

      .cls-6 {
        isolation: isolate;
      }

      .cls-7 {
        fill: #e29416;
      }

      .cls-8 {
        fill: #fff048;
      }

      .cls-9 {
        clip-path: url(#clippath-1);
      }

      .cls-10 {
        fill: #975117;
      }

      .cls-11 {
        fill: #98cb00;
      }

      .cls-12 {
        fill: #ffd5b1;
      }

      .cls-13 {
        fill: #ffd02a;
      }

      .cls-14 {
        clip-path: url(#clippath);
      }

      .cls-15 {
        fill: none;
      }

      .cls-16 {
        fill: #de2c00;
      }

      .cls-17 {
        fill: #dc8949;
      }

      .cls-18 {
        fill: #f90;
      }
    </style>
    <clipPath id="clippath">
      <polygon class="cls-15" points="45.87 17.3 43.43 12.33 28.55 12.33 26.11 17.3 23.84 21.9 48.13 21.9 45.87 17.3"/>
    </clipPath>
    <clipPath id="clippath-1">
      <polygon class="cls-15" points="41.58 8.57 30.39 8.57 28.55 12.33 43.43 12.33 41.58 8.57"/>
    </clipPath>
    <clipPath id="clippath-2">
      <path class="cls-15" d="m69.82,25.6v3.18c0,2.57-1.67,4.86-4.14,5.58-5.83,1.71-11.66,1.65-17.49.85h0c-15.35-2.1-30.7-9.27-46.05-2.38v-3.18c0-2.57,1.67-4.86,4.14-5.58,5.83-1.71,11.66-1.65,17.49-.85h0c15.35,2.1,30.7,9.27,46.05,2.38Z"/>
    </clipPath>
  </defs>
  <g class="cls-6">
    <g id="Capa_1" data-name="Capa 1">
      <g>
        <rect class="cls-18" width="200" height="68.8"/>
        <g>
          <g>
            <g>
              <path class="cls-16" d="m82.82,17.84c-.08.2-.35.63-.83,1.3-1.23,1.72-1.96,2.78-2.18,3.18.79,1.29,1.25,2.05,1.4,2.29.64,1.11,1.1,2.03,1.38,2.78-.34.5-.91,1.48-1.71,2.96-.42.76-.7,1.29-.85,1.59.5.76.88,1.35,1.16,1.76.51.77.87,1.29,1.06,1.55-.3.67-.5,1.12-.61,1.35-.25.55-.58,1.11-.98,1.68-.21.04-.61.09-1.19.17-.58.07-1.06.14-1.45.21l-.12-24.83c.33.04.78.06,1.35.07s.91.02,1.01.05c.5.72.88,1.27,1.14,1.65.79,1.17,1.26,1.91,1.42,2.24Zm-2.1,17.4c0-.46-.2-.69-.59-.69s-.59.23-.59.69c0,.39.2.59.59.59s.59-.2.59-.59Zm.24-17.68c0-.46-.2-.69-.61-.69-.45,0-.67.23-.67.69,0,.42.22.63.67.63.41,0,.61-.21.61-.63Zm.04,9.46c0-.46-.22-.69-.65-.69-.2,0-.36.06-.48.19-.12.12-.19.29-.19.5,0,.18.06.33.19.44.12.11.29.17.48.17.43,0,.65-.2.65-.61Zm18.19-3.91c0,2.12-.5,3.86-1.49,5.21-.87,1.17-2.08,2.03-3.64,2.58-1.3.46-2.78.69-4.44.69-.45.05-.92.12-1.44.21s-.99.13-1.44.13v5.54c-.18.03-.6.07-1.26.14-1.48.13-2.63.26-3.44.39l1.24-2.28c-.12-.28-.46-.91-1.02-1.91-.56-1-.94-1.74-1.12-2.22.56-.85,1.03-1.56,1.4-2.12.71-1.09,1.11-1.78,1.2-2.06-.52-.92-1.05-1.84-1.57-2.75-.75-1.34-1.17-2.19-1.28-2.56.35-.45.9-1.16,1.63-2.15.73-.99,1.19-1.62,1.38-1.88l-2.36-4.36c.26,0,.86-.02,1.8-.06.94-.04,2.26-.09,3.96-.15,1.7-.06,2.56-.09,2.58-.09,2.86,0,5.14.92,6.84,2.77,1.65,1.78,2.48,4.1,2.48,6.94Zm-9.28-.22c0-.66-.15-1.17-.46-1.55-.36-.46-.92-.69-1.67-.69-.52,0-.82.16-.91.48-.09.32-.13,1.22-.13,2.7v.87c0,.24.04.37.13.41.09.04.33.06.72.06.57,0,1.09-.23,1.58-.69.49-.46.73-.99.73-1.59Z"/>
              <path class="cls-11" d="m106.48,35.66c-.08.09-.4.45-.96,1.06-.31.34-.56.68-.75,1.02-.52.17-1.09.34-1.69.51-.39.1-.77.2-1.12.29l.1-24.71h.59c.63,0,1.26-.04,1.91-.12.29.55.65,1.2,1.08,1.94.3.52.52.95.65,1.28-.84,1.6-1.67,3.19-2.5,4.77.21.55.6,1.42,1.16,2.61.25.52.69,1.43,1.34,2.71-.39.64-.78,1.28-1.16,1.91-.51.83-.91,1.45-1.2,1.89.22.31.66,1.08,1.3,2.29.64,1.21,1.06,2.06,1.26,2.55Zm-2.1-1.32c0-.43-.22-.65-.65-.65s-.63.22-.63.65c0,.39.21.59.63.59s.65-.2.65-.59Zm.18-17.62c0-.43-.21-.65-.63-.65s-.61.22-.61.65c0,.35.2.53.61.53.24,0,.4-.04.49-.11.09-.07.14-.21.14-.42Zm.43,9.54c0-.43-.2-.65-.61-.65-.43,0-.65.22-.65.65s.22.65.65.65c.41,0,.61-.22.61-.65Zm6.17,11.17h-4.6c.08-.18.25-.44.51-.78.26-.33.45-.61.57-.82-.39-.81-.72-1.49-.98-2.03-.51-1.04-1.07-1.97-1.67-2.79.39-.66.75-1.23,1.08-1.73.46-.68.92-1.36,1.4-2.04-.34-.75-.81-1.73-1.42-2.95-.48-.97-.91-1.8-1.28-2.5.14-.24.56-1,1.24-2.28.63-1.18,1.05-1.97,1.28-2.36-.05-.13-.21-.57-.47-1.32-.17-.51-.45-1.28-.85-2.3,1.14-.09,2.2-.15,3.17-.17.97-.02,1.64-.04,2.03-.05v24.1Z"/>
              <path class="cls-12" d="m130.82,14.42c-.17.33-.28.54-.31.65s-.08.25-.12.43c-.52-.05-1.19.21-2,.78s-1.62,1.14-2.43,1.72c-1.56-.6-2.81-1.07-3.75-1.4-.94-.33-1.58-.49-1.92-.49-.45,2.11-.89,4.22-1.34,6.33-.6.63-1.31,1.26-2.12,1.91-.67.54-1.14.98-1.42,1.32.98,1.09,1.52,1.68,1.61,1.77.59.62,1.45,1.38,2.58,2.3-.03.26-.04.48-.04.65-.08,1.17-.12,2.06-.12,2.67,0,.51.02.94.06,1.28.09,0,.86-.14,2.3-.41,1.44-.28,2.46-.48,3.07-.63,1.06.72,1.93,1.28,2.61,1.68.68.4,1.26.67,1.74.82h.35c.3,0,.51-.03.63-.1v.83c-.51.48-1.21.83-2.08,1.03-.88.2-1.91.3-3.11.3-3.21,0-5.88-1.24-7.99-3.71-2.12-2.47-3.18-5.5-3.18-9.07,0-3.28,1.23-6.07,3.7-8.38,2.41-2.25,5.28-3.38,8.59-3.38.96,0,1.74.05,2.36.14,1.13.17,1.9.49,2.32.96Zm-12.94,6.25c0-.46-.23-.69-.69-.69-.41,0-.61.23-.61.69,0,.42.2.63.61.63.46,0,.69-.21.69-.63Zm12.15-4.17c.03.1.01.28-.04.52-.05.24-.1.46-.14.64-.17.25-.33.5-.49.75-.22.54-.47,1.33-.73,2.38-.59.04-1.18.07-1.77.1-1.35.17-2.43.54-3.22,1.1-1.14.8-1.71,1.97-1.71,3.5,0,1.64.5,2.94,1.49,3.91.9.88,2.02,1.32,3.34,1.32.56,0,1.14-.1,1.73-.31h.81c.05.46.13,1.02.24,1.67.16.93.24,1.7.24,2.3h-.59c-.07-.03-.63-.35-1.69-.97s-1.81-1.05-2.24-1.27c-.34.05-1.19.25-2.56.59-1.18.3-1.95.45-2.32.45,0-.72,0-1.39.02-2,.02-.61.03-1.16.06-1.66v-.26c-.05-.22-.71-.82-1.97-1.8s-1.89-1.52-1.89-1.64c.14-.16.87-.77,2.16-1.83.62-.5,1.09-.96,1.44-1.38.17-1.27.33-2.37.49-3.3s.24-1.6.24-2.01c.59.16,1.61.5,3.05,1.04,1.05.38,1.68.62,1.91.71,1.38-.85,2.76-1.7,4.15-2.56Zm-11.97,13.9c0-.45-.2-.67-.61-.67-.45,0-.67.22-.67.67,0,.35.22.53.67.53.41,0,.61-.18.61-.53Zm7.37,4.82c0-.42-.21-.63-.63-.63s-.61.21-.61.63c0,.38.2.57.61.57s.63-.19.63-.57Zm1.55-19.94c0-.39-.22-.59-.67-.59-.38,0-.57.2-.57.59s.19.61.57.61c.45,0,.67-.2.67-.61Z"/>
              <path class="cls-16" d="m156.89,26c0,3.39-1.19,6.15-3.58,8.26s-5.44,3.17-9.16,3.17c-3.2,0-5.92-1.27-8.18-3.81-2.08-2.35-3.13-4.93-3.13-7.75,0-3.59,1.24-6.56,3.73-8.92,2.48-2.35,5.58-3.53,9.29-3.53,1.39,0,2.86.4,4.42,1.2,1.87.97,3.38,2.31,4.52,4.01,1.39,2.08,2.08,4.54,2.08,7.37Zm-19.88,2.22c0-.43-.2-.65-.59-.65-.48,0-.73.22-.73.65,0,.41.24.61.73.61.39,0,.59-.2.59-.61Zm17.54-6.47c-.31-.2-.85-.46-1.61-.79-1.82-.79-2.86-1.25-3.11-1.38-.28-.68-.63-1.39-1.07-2.12s-1.03-1.62-1.76-2.65c-.6.56-1.06,1-1.38,1.3-1.04.97-1.85,1.67-2.46,2.1-.29-.07-1.05-.29-2.28-.69-.5-.16-.85-.26-1.04-.29v.55c0,.75-.03,1.46-.08,2.15-.05.69-.15,1.12-.29,1.29-.48.39-.97.83-1.45,1.3-.59.6-1.18,1.2-1.77,1.79.21.25.56.67,1.06,1.26.17.2.82.94,1.95,2.24-.08.3-.18.77-.31,1.42l-.47,2.36h3.93c.63.68,1.26,1.36,1.89,2.03.52.51,1.22,1.02,2.08,1.53.58-.69,1.03-1.28,1.36-1.77.55-.84.88-1.31,1-1.42.46-.12.92-.24,1.4-.35.6-.24,1.72-.77,3.34-1.61-.28-.48-.64-1.24-1.1-2.26-.16-.35-.37-.85-.63-1.47,0-.5.46-1.37,1.38-2.61.66-.85,1.13-1.48,1.44-1.89Zm-16.53-2.5c0-.43-.21-.65-.63-.65s-.63.22-.63.65c0,.22.05.39.15.5s.26.17.48.17c.42,0,.63-.22.63-.67Zm15.45,3.05c-.45.35-1.05,1.08-1.81,2.18-.71,1.04-1.06,1.64-1.06,1.81.29.41.51.74.67,1,.52.84.92,1.62,1.18,2.34-.77.33-1.38.58-1.81.75-1.28.52-2.16.85-2.61.98-.34.35-.62.71-.83,1.08l-.83,1.65c-.17,0-.69-.44-1.57-1.32-.94-.94-1.58-1.46-1.91-1.55-.37,0-.75-.01-1.16-.04-1.4-.09-2.12-.14-2.14-.14-.03-.14,0-.47.08-.98.21-1.28.31-2.05.31-2.3v-.2c-.03-.09-.04-.15-.04-.18-.04-.22-.4-.77-1.08-1.65-.63-.81-1.13-1.42-1.51-1.81.21-.13.51-.37.9-.71,1.18-1.01,1.83-1.56,1.95-1.65.18-.17.29-.41.32-.72.03-.31.05-1.19.05-2.64.52.17,1.06.33,1.6.47.54.14,1.1.22,1.68.22.75-.67,1.3-1.16,1.65-1.47.66-.59,1.15-1.11,1.49-1.57.25.47.58,1.13,1,1.97.6,1.21,1.03,2.01,1.28,2.42.9.37,1.63.67,2.18.9,1.02.45,1.69.83,2.01,1.16Zm-11.46,12.21c0-.43-.19-.65-.57-.65-.45,0-.67.22-.67.65s.22.63.67.63c.22,0,.37-.05.45-.14s.12-.26.12-.49Zm7.77-8.65c0-1.55-.4-2.8-1.19-3.77s-1.81-1.45-3.04-1.45-2.2.29-2.93.87c-.9.71-1.36,1.82-1.36,3.32,0,1.76.49,3.13,1.47,4.11.84.84,1.84,1.26,2.99,1.26,1.34,0,2.38-.5,3.13-1.51.62-.84.92-1.78.92-2.83Zm-6.13-10.58c0-.39-.2-.59-.61-.59-.45,0-.67.2-.67.59,0,.48.22.73.67.73.41,0,.61-.24.61-.73Zm8.28,17.81c0-.38-.22-.57-.67-.57-.22,0-.39.04-.49.12s-.16.23-.16.45c0,.42.22.63.65.63.22,0,.39-.05.5-.15s.17-.26.17-.48Zm.61-15.32c0-.42-.2-.63-.61-.63s-.63.21-.63.63.21.65.63.65.61-.22.61-.65Zm2.67,8.16c0-.39-.22-.59-.65-.59-.21,0-.36.05-.44.15s-.13.25-.13.44c0,.22.04.4.13.53s.23.2.44.2c.43,0,.65-.24.65-.73Z"/>
              <path class="cls-11" d="m169.27,35.36c-.2.25-.42.58-.65.98-.34.58-.6.87-.77.87h-3.38s-.07-.72-.09-2.04c-.02-1.32-.03-2.74-.03-4.24v-9.68c-.6,0-1.29,0-2.06-.02s-1.48-.03-2.15-.06l-1.16-7.55,6.6.1c.32.26,1.08.98,2.31,2.16.54.52,1,.94,1.38,1.26-.29.49-.8,1.4-1.52,2.76-.72,1.35-1.23,2.3-1.5,2.86.42.55.94,1.29,1.57,2.22.43.66.87,1.31,1.32,1.97-.25.51-.6,1.15-1.06,1.91-.28.45-.84,1.33-1.69,2.66.45.75,1.07,1.62,1.88,2.61.33.42.67.83,1.01,1.24Zm-3.19-17.69c0-.45-.24-.67-.73-.67-.35,0-.53.22-.53.67,0,.41.18.61.53.61.48,0,.73-.2.73-.61Zm.87,9.56c0-.42-.2-.63-.61-.63s-.61.21-.61.63c0,.39.2.59.61.59s.61-.2.61-.59Zm.35,7.75c0-.45-.22-.67-.67-.67-.41,0-.61.22-.61.67,0,.41.2.61.61.61.45,0,.67-.2.67-.61Zm10.38-13.82h-5.25v16.59c-.55,0-1.02-.02-1.4-.06-1.01-.1-1.62-.16-1.83-.16.26-.43.47-.8.63-1.1s.32-.62.49-.96c-.39-.58-.87-1.25-1.44-2.03-.63-.87-1.09-1.48-1.4-1.85.07-.1.39-.63.96-1.58.87-1.42,1.47-2.45,1.81-3.11-.33-.56-.81-1.32-1.44-2.26-.76-1.12-1.21-1.79-1.34-2.03.99-1.86,1.98-3.73,2.97-5.61-.65-.61-1.14-1.08-1.46-1.41-.59-.59-1.16-1.24-1.7-1.97l9.38.1,1,7.43Z"/>
              <path class="cls-12" d="m185.89,35.2c-.33.45-.62.85-.88,1.21s-.47.66-.63.89l-4.23.29c0-2.54.07-5.18.21-7.91s.28-5.48.42-8.24.22-5.47.22-8.13h2.3c.22.47.57,1.17,1.04,2.1.64,1.25,1.1,2.09,1.38,2.54-.42.45-.89,1.01-1.42,1.69-.59.77-1.09,1.51-1.51,2.22.07.1.35.56.85,1.36.92,1.48,1.47,2.42,1.67,2.81-.16.26-.6.84-1.34,1.73-.39.48-.95,1.15-1.67,2.01.68,1,1.27,1.86,1.77,2.6.93,1.38,1.54,2.32,1.83,2.83Zm-2.79-9.77c0-.45-.22-.67-.67-.67-.42,0-.63.22-.63.67,0,.41.21.61.63.61.45,0,.67-.2.67-.61Zm.33,9.16c0-.43-.22-.65-.65-.65s-.67.22-.67.65c0,.21.06.36.19.46s.29.15.48.15c.43,0,.65-.2.65-.61Zm.35-17.85c0-.45-.21-.67-.63-.67s-.63.22-.63.67c0,.38.21.57.63.57s.63-.19.63-.57Zm13.49-2.79s-.1.31-.26.92c-.21.77-.39,1.53-.55,2.28-.24,1.07-.41,2.02-.51,2.83l-6.7-.18v2.81c.46,0,.88-.02,1.27-.05s.82-.08,1.29-.13c0,1.43.07,3.13.2,5.11.01.35.05.81.12,1.36-.51,0-1.13.02-1.87.07s-1.13.07-1.18.07l-.04,2.4c1.01.08,2.03.15,3.08.23s2.57.11,4.57.11c-.24.81-.43,1.47-.57,1.97-.43,1.52-.79,2.82-1.06,3.91l-9.75-.35c.13-.16.45-.55.94-1.18.22-.29.42-.52.59-.71-.63-.95-1.23-1.87-1.81-2.78-.81-1.26-1.37-2.15-1.67-2.66.24-.28.78-.99,1.63-2.15.81-1.09,1.28-1.73,1.42-1.91-.21-.28-.75-1.2-1.63-2.76-.48-.85-.77-1.37-.85-1.54.29-.43.77-1.06,1.44-1.87.63-.76,1.14-1.36,1.53-1.79-.22-.48-.45-.94-.67-1.36-.52-.99-1.11-2.08-1.75-3.28l12.8.63Z"/>
            </g>
            <g>
              <path class="cls-2" d="m77.45,45.24h2.16c1.05,0,1.75.04,2.13.12.37.08.68.29.91.62.23.33.35.86.35,1.59,0,.67-.08,1.11-.25,1.34-.17.23-.49.36-.97.41.44.11.73.25.88.44.15.18.25.35.29.5.04.15.05,1.14.05,2.96v.27c0,.6.14,1.16.43,1.68l.17.3h-1.07c-.44,0-.81-.15-1.12-.46s-.46-.68-.46-1.12v-1.25c0-1.59-.04-2.44-.11-2.55-.07-.11-.26-.17-.57-.17v3.89c0,.46-.16.85-.48,1.17-.33.33-.72.49-1.18.49h-1.15l.13-.24c.31-.56.46-1.17.46-1.81v-2.87l-.71-1.06.71-1.06v-1.18c0-.63-.15-1.22-.46-1.77l-.13-.24Zm2.81,3.36c.25,0,.43-.03.53-.1.1-.07.15-.29.15-.67v-.47c0-.27-.05-.45-.14-.53-.1-.09-.27-.13-.53-.13v1.9Z"/>
              <path class="cls-2" d="m85.4,45.19c.41,0,.66,0,.75,0h.1s.09,0,.13,0c.12,0,.23.01.34.02.32.03.61.09.87.18.11.04.23.06.34.06.06,0,.11,0,.17-.01.17-.03.33-.1.46-.22.02-.02.04-.03.06-.04h.5v2.12h-.54c-.33-.28-.71-.41-1.14-.41h-.93v1.74c.34,0,.65-.09.94-.27l.12-.08h.5v2.33h-.56l-.14-.1c-.26-.17-.55-.26-.86-.26v1.76h.9c.45,0,.85-.14,1.21-.41h.65v2.13h-.57l-.04-.03c-.14-.09-.29-.14-.46-.14h-.03c-.18,0-.34.06-.48.17h-3.99c.39-.72.59-1.5.59-2.32v-.89l-.71-1.06.71-1.07v-.91c0-.81-.2-1.57-.59-2.29.73,0,1.29,0,1.7,0Z"/>
              <path class="cls-2" d="m92.38,47.82v-.63c0-.3-.03-.48-.08-.57-.05-.08-.14-.12-.27-.12-.13,0-.23.06-.3.17-.07.11-.1.27-.1.49,0,.29.04.5.12.65.07.14.28.32.63.52l.17.1c.44.27,1.24.62,2.4,1.06-.28.44-.41.77-.41.99,0,.03,0,.06,0,.09.06.29.08.64.08,1.03,0,.61-.07,1.06-.21,1.34-.14.29-.42.53-.82.72-.41.2-.88.29-1.42.29s-1.05-.1-1.46-.3l-.06-.04s-.06-.03-.1-.06c-.07-.04-.14-.07-.22-.07h-.04c-.1,0-.18.05-.24.12-.09.1-.23.15-.39.15,0-.06,0-.3,0-.71,0-.31,0-.72,0-1.21h0c0-.31.11-.57.32-.79.22-.22.48-.33.79-.33h.94v1.04c0,.32.03.53.09.62s.16.14.31.14.26-.06.33-.17.11-.29.11-.52c0-.5-.07-.83-.21-.99-.06-.07-.16-.16-.31-.27-.12-.09-.98-.44-2.58-1.06.18-.64.27-1,.27-1.06h0c-.08-.28-.12-.6-.12-.99,0-.65.08-1.13.25-1.43.17-.3.44-.54.81-.71s.82-.26,1.35-.26c.58,0,1.07.09,1.47.28.07.03.14.07.21.1.04.02.09.04.14.04h.03c.06,0,.12-.03.16-.08.1-.1.24-.16.44-.16l.02,1.71h0c0,.24-.08.44-.25.61-.17.17-.37.25-.61.25h-1.2Z"/>
              <path class="cls-2" d="m100.79,45.24v2.66h-1.07v-.96c-.23,0-.43.08-.59.24s-.24.36-.24.59v.65l.71,1.06-.71,1.06v.89c0,.82.2,1.6.59,2.32h-3.4c.4-.72.59-1.5.59-2.32v-.89l-.71-1.06.71-1.07v-.64c0-.23-.08-.43-.25-.6s-.36-.25-.6-.25v.96h-1.06v-2.66h.55l.02.02c.14.14.3.21.49.21h.01c.2,0,.36-.08.5-.22h2.87c.15.15.32.22.53.22.21,0,.38-.07.53-.22h.53Z"/>
              <path class="cls-2" d="m105.61,45.24c-.28.54-.42,1.1-.42,1.68,0,.19.02.38.05.58l.14.94.87,1.06-.55,1.06.12.82c.13.87.44,1.67.94,2.39h-1.32c-.43,0-.81-.15-1.13-.44-.32-.3-.5-.66-.53-1.09h-.8c-.04.43-.22.8-.54,1.09-.32.3-.7.44-1.14.44h-1.35c.49-.72.79-1.52.91-2.39l.11-.83-.57-1.06.85-1.06.12-.93c.02-.17.03-.34.03-.51,0-.61-.15-1.19-.44-1.75h4.63Zm-1.88,5.49c-.11-.97-.23-2.17-.34-3.59-.23,1.64-.37,2.83-.43,3.59h.77Z"/>
              <path class="cls-2" d="m112.83,45.24c-.4.71-.59,1.47-.59,2.29v.91l.71,1.06-.71,1.06v.38c0,.65-.02,1.1-.06,1.36-.04.26-.17.53-.38.81s-.48.48-.82.63c-.34.14-.74.22-1.2.22-.51,0-.96-.08-1.35-.25-.39-.17-.68-.39-.88-.66s-.31-.56-.34-.86c-.03-.27-.05-.81-.05-1.62,0-.06-.24-.41-.71-1.06l.71-1.06v-.91c0-.81-.2-1.57-.59-2.29h1.71c.31,0,.57.11.78.32s.32.48.32.78v5.3c0,.37.02.61.06.71.04.1.12.16.24.16.14,0,.23-.06.27-.17.04-.12.06-.39.06-.81v-5.19c0-.3.11-.56.32-.78s.47-.32.78-.32h1.71Z"/>
              <path class="cls-2" d="m113.25,45.24h2.16c1.05,0,1.75.04,2.13.12.37.08.68.29.91.62.23.33.35.86.35,1.59,0,.67-.08,1.11-.25,1.34-.17.23-.49.36-.97.41.44.11.73.25.88.44.15.18.25.35.29.5.04.15.05.58.05,1.26v.27c0,.6.14,1.16.43,1.68l.17.3h-1.07c-.44,0-.81-.15-1.12-.46s-.46-.68-.46-1.12v-1.25c0-.46-.04-.74-.11-.85-.07-.11-.26-.17-.57-.17v2.19c0,.46-.16.85-.48,1.17-.33.33-.72.49-1.18.49h-1.15l.13-.24c.31-.56.46-1.17.46-1.81v-1.17l-.71-1.06.71-1.06v-1.18c0-.63-.15-1.22-.46-1.77l-.13-.24Zm2.81,3.36c.25,0,.43-.03.53-.1.1-.07.15-.29.15-.67v-.47c0-.27-.05-.45-.14-.53-.1-.09-.27-.13-.53-.13v1.9Z"/>
              <path class="cls-2" d="m125.22,45.24c-.28.54-.42,1.1-.42,1.68,0,.19.02.38.05.58l.14.94.87,1.06-.55,1.06.12.82c.13.87.44,1.67.94,2.39h-1.32c-.43,0-.81-.15-1.13-.44-.32-.3-.5-.66-.53-1.09h-.8c-.04.43-.22.8-.54,1.09-.32.3-.7.44-1.14.44h-1.35c.49-.72.79-1.52.91-2.39l.11-.83-.57-1.06.85-1.06.12-.93c.02-.17.03-.34.03-.51,0-.61-.15-1.19-.44-1.75h4.63Zm-1.88,5.49c-.11-.97-.23-2.17-.34-3.59-.23,1.64-.37,2.83-.43,3.59h.77Z"/>
              <path class="cls-2" d="m132.64,45.24c-.39.71-.59,1.47-.59,2.29v.91l.71,1.07-.71,1.06v.89c0,.82.2,1.6.59,2.32-.75,0-1.43-.22-2.03-.68-.6-.45-1.01-1.04-1.23-1.76l-.43-1.45v2.8c0,.3-.11.55-.31.76-.21.21-.46.32-.76.32h-1.37c.4-.72.59-1.5.59-2.32v-.89l-.71-1.06.71-1.06v-.91c0-.81-.2-1.58-.59-2.29h2.45l1.25,3.84v-2.78c0-.29.1-.54.31-.75s.46-.31.75-.31h1.38Z"/>
              <path class="cls-2" d="m138.99,45.24v2.66h-1.07v-.96c-.23,0-.43.08-.59.24s-.24.36-.24.59v.65l.71,1.06-.71,1.06v.89c0,.82.2,1.6.59,2.32h-3.4c.4-.72.59-1.5.59-2.32v-.89l-.71-1.06.71-1.07v-.64c0-.23-.08-.43-.25-.6s-.36-.25-.6-.25v.96h-1.06v-2.66h.55l.02.02c.14.14.3.21.49.21h.01c.2,0,.36-.08.5-.22h2.87c.15.15.32.22.53.22.21,0,.38-.07.53-.22h.53Z"/>
              <path class="cls-2" d="m140.82,45.19c.41,0,.66,0,.75,0h.1s.09,0,.13,0c.12,0,.23.01.34.02.32.03.61.09.87.18.11.04.23.06.34.06.05,0,.11,0,.17-.01.17-.03.33-.1.46-.22.02-.02.04-.03.06-.04h.5v2.12h-.54c-.33-.28-.71-.41-1.14-.41h-.93v1.74c.34,0,.65-.09.94-.27l.12-.08h.5v2.33h-.56l-.14-.1c-.26-.17-.55-.26-.86-.26v1.76h.9c.45,0,.85-.14,1.21-.41h.65v2.13h-.57l-.04-.03c-.14-.09-.29-.14-.46-.14h-.03c-.18,0-.34.06-.48.17h-3.99c.39-.72.59-1.5.59-2.32v-.89l-.71-1.06.71-1.07v-.91c0-.81-.2-1.57-.59-2.29.73,0,1.29,0,1.7,0Z"/>
              <path class="cls-2" d="m155.78,45.24c-.39.71-.59,1.47-.59,2.29v.91l.71,1.07c-.47.7-.71,1.48-.71,2.33v2.56l.59,1.09h-1.45c-.3,0-.55-.11-.77-.32s-.32-.47-.32-.77v-6.38l-.77,4.7h-1.38l-.82-4.57v6.25c0,.3-.11.55-.32.77-.21.21-.47.32-.77.32h-1.45c.39-.72.59-2.06.59-4.02v-.89l-.71-1.06.71-1.07v-.91c0-.81-.2-1.57-.59-2.29h2.58c.26,0,.48.08.68.25.19.17.31.38.34.63.04.29.08.6.12.94l.32,2.17.39-3.1c.03-.25.14-.46.34-.63.19-.17.42-.25.67-.25h2.59Z"/>
              <path class="cls-2" d="m157.9,45.19c.41,0,.66,0,.75,0h.1s.09,0,.13,0c.12,0,.23.01.34.02.32.03.61.09.87.18.11.04.23.06.34.06.06,0,.11,0,.17-.01.17-.03.33-.1.46-.22.02-.02.04-.03.06-.04h.5v2.12h-.54c-.33-.28-.71-.41-1.14-.41h-.93v1.74c.34,0,.65-.09.94-.27l.12-.08h.5v2.33h-.56l-.14-.1c-.26-.17-.55-.26-.86-.26v1.76h.9c.45,0,.85-.14,1.21-.41h.65v2.13h-.57l-.04-.03c-.14-.09-.29-.14-.46-.14h-.03c-.18,0-.34.06-.48.17h-3.99c.39-.72.59-1.5.59-2.32v-.89l-.71-1.06.71-1.07v-.91c0-.81-.2-1.57-.59-2.29.73,0,1.29,0,1.7,0Z"/>
              <path class="cls-2" d="m168.08,45.24c-.53.71-.87,1.5-1.03,2.37l-.15.82.75,1.05-.65,1.08.21.78c.25.9.67,1.71,1.26,2.44h-1.85c-.23,0-.45-.07-.64-.21s-.32-.32-.39-.55c-.19-.64-.34-1.27-.44-1.88-.01.14-.05.39-.11.75-.04.28-.1.61-.17,1-.04.26-.17.47-.36.63-.2.17-.43.25-.69.25h-1.86c.53-.72.88-1.53,1.04-2.41l.15-.81-.75-1.08.75-1.05-.16-.82c-.17-.87-.51-1.66-1.04-2.37h1.84c.26,0,.49.08.68.25.2.17.31.38.36.63.01.07.03.17.05.29l.05.29c.04.24.07.43.1.57.07.42.11.67.12.77l.32-1.9c.04-.26.17-.48.37-.65.2-.17.43-.25.7-.25h1.54Z"/>
              <path class="cls-2" d="m172.01,45.24c-.39.71-.59,1.47-.59,2.29v.91l.71,1.06-.71,1.06v.89c0,.82.2,1.6.59,2.32h-3.4c.39-.72.59-1.5.59-2.32v-.89l-.71-1.06.71-1.07v-.91c0-.81-.2-1.57-.59-2.29h3.4Z"/>
              <path class="cls-2" d="m176.05,48.95v-1.48c0-.43-.02-.7-.07-.81-.05-.11-.15-.16-.31-.16-.19,0-.3.07-.35.19-.05.13-.07.41-.07.85v.89l.71,1.06-.71,1.06v.94c0,.41.02.68.07.81.05.13.16.19.33.19s.27-.06.32-.19c.05-.13.08-.43.08-.89v-1.07h1.88c.09,0,.17.03.24.1.07.06.1.14.1.24,0,.88-.06,1.51-.19,1.88-.12.37-.4.69-.83.97-.43.28-.95.42-1.58.42s-1.18-.12-1.61-.35c-.42-.24-.7-.56-.84-.98-.14-.41-.21-1.04-.21-1.88v-.18l-.71-1.06.71-1.06v-.19c0-.61.02-1.07.06-1.38.04-.31.17-.6.38-.89s.5-.51.87-.68c.37-.16.8-.24,1.28-.24.65,0,1.19.13,1.62.38l.05.03c.08.05.15.07.21.07h.02s.09-.04.16-.09l.04-.03.05-.03s.08-.05.12-.07c.1-.05.22-.07.37-.07v3.22c0,.14-.05.25-.14.35-.1.09-.21.14-.35.14h-1.71Z"/>
              <path class="cls-2" d="m183.56,45.24c-.28.54-.42,1.1-.42,1.68,0,.19.02.38.05.58l.14.94.87,1.06-.55,1.06.12.82c.13.87.44,1.67.94,2.39h-1.32c-.43,0-.81-.15-1.13-.44-.32-.3-.5-.66-.53-1.09h-.8c-.04.43-.22.8-.54,1.09-.32.3-.7.44-1.14.44h-1.35c.49-.72.79-1.52.91-2.39l.11-.83-.57-1.06.85-1.06.12-.93c.02-.17.03-.34.03-.51,0-.61-.15-1.19-.44-1.75h4.63Zm-1.88,5.49c-.11-.97-.23-2.17-.34-3.59-.23,1.64-.37,2.83-.43,3.59h.77Z"/>
              <path class="cls-2" d="m190.98,45.24c-.39.71-.59,1.47-.59,2.29v.91l.71,1.07-.71,1.06v.89c0,.82.2,1.6.59,2.32-.75,0-1.43-.22-2.03-.68-.6-.45-1.01-1.04-1.23-1.76l-.43-1.45v2.8c0,.3-.1.55-.31.76-.21.21-.46.32-.76.32h-1.37c.39-.72.59-1.5.59-2.32v-.89l-.71-1.06.71-1.06v-.91c0-.81-.2-1.58-.59-2.29h2.45l1.25,3.84v-2.78c0-.29.1-.54.31-.75s.46-.31.75-.31h1.38Z"/>
              <path class="cls-2" d="m197.08,52.05c-.04.36-.17.68-.38.98s-.5.52-.86.68c-.36.16-.78.24-1.27.24-.46,0-.87-.07-1.23-.22s-.66-.37-.88-.68c-.22-.3-.35-.62-.39-.97-.04-.31-.06-.81-.06-1.52,0-.07-.24-.42-.71-1.06.48-.64.71-1,.71-1.07,0-.68.02-1.17.06-1.48.04-.36.17-.68.38-.98s.5-.52.86-.68c.36-.16.78-.24,1.26-.24s.87.07,1.23.22c.36.15.65.38.88.68.22.3.35.62.39.97.04.3.06.8.06,1.5,0,.07.24.43.71,1.07-.48.63-.71.99-.71,1.06,0,.69-.02,1.19-.06,1.5Zm-2.16-4.63c0-.4-.02-.65-.06-.76-.04-.11-.14-.17-.27-.17-.12,0-.2.05-.27.14-.06.09-.1.35-.1.79v3.99c0,.49.02.8.06.92s.14.17.28.17.25-.07.29-.2c.04-.14.06-.45.06-.96v-3.92Z"/>
            </g>
          </g>
          <g>
            <path class="cls-17" d="m41.58,64.33c-2.49,4.31-8.7,4.31-11.19,0l-8.38-14.51-8.38-14.51c-2.49-4.31.62-9.69,5.59-9.69h33.52c4.97,0,8.08,5.38,5.59,9.69l-8.38,14.51-8.38,14.51Z"/>
            <path class="cls-13" d="m39.55,64.06c-1.58,2.74-5.54,2.74-7.12,0l-8.48-14.69-8.48-14.69c-1.58-2.74.4-6.16,3.56-6.16h33.92c3.16,0,5.14,3.42,3.56,6.16l-8.48,14.69-8.48,14.69Z"/>
            <path d="m54.02,47.07c-2.73.2-5.63-.57-7.53-2.55-1.4-1.47-2.2-3.52-3.87-4.67-1.97-1.36-5.04-.72-6.62,1.14-1.56-1.87-4.63-2.54-6.61-1.2-1.68,1.14-2.49,3.18-3.91,4.64-1.91,1.96-4.82,2.71-7.55,2.49-2.73-.22-4.73-1.61-7.15-2.89,2.89,4.26,7.65,7.2,12.75,7.89,1.42.19,2.88.21,4.28-.1,2.38-.54,6.33-2.69,8.16-5.38,1.81,2.7,5.74,4.89,8.12,5.45,1.4.33,2.86.32,4.28.14,5.11-.64,9.89-3.55,12.82-7.78-2.43,1.26-4.45,2.63-7.18,2.83Z"/>
            <circle class="cls-4" cx="22.12" cy="34.68" r=".61"/>
            <circle class="cls-4" cx="43.88" cy="36.35" r=".61"/>
            <circle class="cls-4" cx="29.41" cy="53.03" r=".61"/>
            <circle class="cls-4" cx="38.16" cy="58.78" r=".61"/>
            <circle class="cls-4" cx="47.99" cy="44.28" r=".61"/>
            <circle class="cls-4" cx="31.43" cy="36.96" r=".61"/>
            <circle class="cls-4" cx="23.99" cy="43.91" r=".61"/>
            <circle class="cls-8" cx="25.2" cy="38.98" r=".61"/>
            <circle class="cls-8" cx="41.77" cy="54.27" r=".61"/>
            <circle class="cls-8" cx="32.42" cy="58.78" r=".61"/>
            <circle class="cls-8" cx="36.46" cy="34.37" r=".61"/>
            <circle class="cls-8" cx="50.67" cy="37.56" r=".61"/>
            <circle class="cls-8" cx="18.62" cy="31.99" r=".61"/>
            <circle class="cls-8" cx="35.38" cy="50.87" r=".61"/>
            <path class="cls-1" d="m58.8,29.82c-.91.07-1.82.12-2.73.13-4.39.06-8.79-.57-13.18-1.43-4.49-.88-8.99-2.01-13.48-2.9h-10.17c-3.55,0-6.15,2.75-6.44,5.89.78-.07,1.55-.12,2.33-.14,1.15-.04,2.31-.02,3.46.03.06,0,.11,0,.17,0,5.71.28,11.41,1.56,17.12,2.84.39.09.79.18,1.18.26,2.16.48,4.31.95,6.47,1.37.29.06.58.11.88.16,1.27.23,2.54.44,3.8.61h0c2.29.31,4.58.51,6.87.53.74,0,1.47,0,2.21-.03l1.06-1.84c1.04-1.8,1.1-3.78.46-5.48Z"/>
            <path class="cls-7" d="m23.78,23.21c33.57-4.65,46.05,2.38,46.05,2.38-.84.38-1.68.71-2.52,1.01-4.63-1.59-15.95-4.24-36.62-2.17-2.3-.48-4.6-.91-6.9-1.22Z"/>
            <path class="cls-10" d="m30.68,24.44c20.67-2.07,31.99.57,36.62,2.17-12.21,4.3-24.41.37-36.62-2.17Z"/>
            <path class="cls-12" d="m38.86,3.02c-1.17-2.39-4.57-2.39-5.75,0l-2.72,5.55h11.19l-2.72-5.55Z"/>
            <polygon class="cls-11" points="41.58 8.57 30.39 8.57 28.55 12.33 43.43 12.33 41.58 8.57"/>
            <polygon class="cls-12" points="45.87 17.3 43.43 12.33 28.55 12.33 26.11 17.3 23.84 21.9 48.13 21.9 45.87 17.3"/>
            <polygon class="cls-3" points="23.84 21.9 19.92 29.9 52.06 29.9 48.13 21.9 23.84 21.9"/>
            <path class="cls-1" d="m50.77,27.29c-4.63-.54-9.21-1.64-13.69-2.96-5.7-1.69-8.7-7.91-6.43-13.4l3.87-9.33c-.58.29-1.09.77-1.41,1.44l-13.2,26.88h32.14l-1.28-2.62Z"/>
            <path class="cls-12" d="m69.82,25.6v3.18c0,2.57-1.67,4.86-4.14,5.58-5.83,1.71-11.66,1.65-17.49.85h0c-15.35-2.1-30.7-9.27-46.05-2.38v-3.18c0-2.57,1.67-4.86,4.14-5.58,5.83-1.71,11.66-1.65,17.49-.85h0c15.35,2.1,30.7,9.27,46.05,2.38Z"/>
            <path class="cls-15" d="m69.82,25.6v3.18c0,2.57-1.67,4.86-4.14,5.58-5.83,1.71-11.66,1.65-17.49.85h0c-15.35-2.1-30.7-9.27-46.05-2.38v-3.18c0-2.57,1.67-4.86,4.14-5.58,5.83-1.71,11.66-1.65,17.49-.85h0c15.35,2.1,30.7,9.27,46.05,2.38Z"/>
            <path class="cls-15" d="m48.13,21.9l-2.26-4.61-2.44-4.97-1.84-3.76-2.72-5.55c-1.17-2.39-4.57-2.39-5.75,0l-2.72,5.55-1.84,3.76-2.44,4.97-2.26,4.61-3.93,8h32.14l-3.93-8Z"/>
            <g class="cls-14">
              <g>
                <g>
                  <rect class="cls-2" x="25.44" y="13.63" width="3.01" height=".14"/>
                  <polygon class="cls-2" points="26.41 13.7 26.95 13.19 27.49 13.7 26.95 14.21 26.41 13.7"/>
                </g>
                <g>
                  <rect class="cls-2" x="28.46" y="13.63" width="3.01" height=".14"/>
                  <polygon class="cls-2" points="29.42 13.7 29.96 13.19 30.51 13.7 29.96 14.21 29.42 13.7"/>
                </g>
                <g>
                  <rect class="cls-2" x="31.47" y="13.63" width="3.01" height=".14"/>
                  <polygon class="cls-2" points="32.43 13.7 32.98 13.19 33.52 13.7 32.98 14.21 32.43 13.7"/>
                </g>
                <g>
                  <rect class="cls-2" x="34.48" y="13.63" width="3.01" height=".14"/>
                  <polygon class="cls-2" points="35.45 13.7 35.99 13.19 36.53 13.7 35.99 14.21 35.45 13.7"/>
                </g>
                <g>
                  <rect class="cls-2" x="37.49" y="13.63" width="3.01" height=".14"/>
                  <polygon class="cls-2" points="38.46 13.7 39 13.19 39.54 13.7 39 14.21 38.46 13.7"/>
                </g>
                <g>
                  <rect class="cls-2" x="40.51" y="13.63" width="3.01" height=".14"/>
                  <polygon class="cls-2" points="41.47 13.7 42.01 13.19 42.55 13.7 42.01 14.21 41.47 13.7"/>
                </g>
                <g>
                  <rect class="cls-2" x="43.52" y="13.63" width="3.01" height=".14"/>
                  <polygon class="cls-2" points="44.48 13.7 45.02 13.19 45.57 13.7 45.02 14.21 44.48 13.7"/>
                </g>
              </g>
              <g>
                <polygon class="cls-16" points="25.44 15.1 27.55 17.64 29.66 15.1 25.44 15.1"/>
                <polygon class="cls-16" points="29.66 15.1 31.77 17.64 33.88 15.1 29.66 15.1"/>
                <polygon class="cls-16" points="33.88 15.1 35.99 17.64 38.1 15.1 33.88 15.1"/>
                <polygon class="cls-16" points="38.1 15.1 40.21 17.64 42.31 15.1 38.1 15.1"/>
                <polygon class="cls-16" points="42.31 15.1 44.42 17.64 46.53 15.1 42.31 15.1"/>
              </g>
            </g>
            <g class="cls-9">
              <g>
                <g>
                  <rect class="cls-2" x="25.44" y="9.75" width="3.01" height=".14"/>
                  <polygon class="cls-2" points="26.41 9.82 26.95 9.31 27.49 9.82 26.95 10.33 26.41 9.82"/>
                </g>
                <g>
                  <rect class="cls-2" x="28.46" y="9.75" width="3.01" height=".14"/>
                  <polygon class="cls-2" points="29.42 9.82 29.96 9.31 30.51 9.82 29.96 10.33 29.42 9.82"/>
                </g>
                <g>
                  <rect class="cls-2" x="31.47" y="9.75" width="3.01" height=".14"/>
                  <polygon class="cls-2" points="32.43 9.82 32.98 9.31 33.52 9.82 32.98 10.33 32.43 9.82"/>
                </g>
                <g>
                  <rect class="cls-2" x="34.48" y="9.75" width="3.01" height=".14"/>
                  <polygon class="cls-2" points="35.45 9.82 35.99 9.31 36.53 9.82 35.99 10.33 35.45 9.82"/>
                </g>
                <g>
                  <rect class="cls-2" x="37.49" y="9.75" width="3.01" height=".14"/>
                  <polygon class="cls-2" points="38.46 9.82 39 9.31 39.54 9.82 39 10.33 38.46 9.82"/>
                </g>
                <g>
                  <rect class="cls-2" x="40.51" y="9.75" width="3.01" height=".14"/>
                  <polygon class="cls-2" points="41.47 9.82 42.01 9.31 42.55 9.82 42.01 10.33 41.47 9.82"/>
                </g>
                <g>
                  <rect class="cls-2" x="43.52" y="9.75" width="3.01" height=".14"/>
                  <polygon class="cls-2" points="44.48 9.82 45.02 9.31 45.57 9.82 45.02 10.33 44.48 9.82"/>
                </g>
              </g>
            </g>
            <g class="cls-5">
              <g>
                <g>
                  <path class="cls-2" d="m2.12,26.85l.06.12,1.33-.54.66-.27c.22-.09.45-.15.68-.23l-.04-.13c-.23.08-.46.14-.68.23l-.67.27-1.33.54Z"/>
                  <polygon class="cls-2" points="3 26.57 3.29 25.9 3.96 26.18 3.67 26.85 3 26.57"/>
                </g>
                <g>
                  <path class="cls-2" d="m4.81,25.81l.04.13,1.36-.45c.46-.14.92-.24,1.39-.37l-.03-.13c-.46.12-.93.22-1.39.37l-1.37.45Z"/>
                  <path class="cls-2" d="m5.7,25.58l.35-.65c.21.1.43.23.64.35-.12.21-.24.41-.35.63l-.64-.33Z"/>
                </g>
                <g>
                  <path class="cls-2" d="m7.57,24.99l.03.13c.92-.26,1.87-.4,2.81-.59l-.02-.13c-.94.18-1.89.32-2.82.59Z"/>
                  <polygon class="cls-2" points="8.47 24.83 8.88 24.23 9.49 24.64 9.08 25.23 8.47 24.83"/>
                </g>
                <g>
                  <path class="cls-2" d="m10.38,24.4l.02.13c.47-.09.95-.12,1.42-.19.47-.06.95-.13,1.43-.15v-.14c-.49.02-.97.09-1.44.15-.48.06-.95.1-1.43.19Z"/>
                  <polygon class="cls-2" points="11.31 24.34 11.76 23.77 12.33 24.21 11.88 24.78 11.31 24.34"/>
                </g>
                <g>
                  <path class="cls-2" d="m13.24,24.06v.14s1.44-.09,1.44-.09c.48-.02.96-.02,1.43-.03v-.14c-.48,0-.96,0-1.44.03l-1.44.09Z"/>
                  <path class="cls-2" d="m14.17,24.07l.49-.54c.18.15.36.33.54.49-.17.17-.33.34-.5.52l-.54-.47Z"/>
                </g>
                <g>
                  <path class="cls-2" d="m16.12,23.94v.14c.96-.03,1.91.04,2.87.06v-.14c-.95-.02-1.91-.09-2.87-.06Z"/>
                  <polygon class="cls-2" points="17.04 24 17.57 23.51 18.08 24.04 17.55 24.53 17.04 24"/>
                </g>
                <g>
                  <polygon class="cls-2" points="19 24 18.99 24.14 20.42 24.24 21.14 24.3 21.85 24.38 21.87 24.24 21.15 24.16 20.43 24.11 19 24"/>
                  <polygon class="cls-2" points="19.91 24.13 20.47 23.67 20.94 24.21 20.39 24.68 19.91 24.13"/>
                </g>
                <g>
                  <polygon class="cls-2" points="21.87 24.24 21.85 24.38 23.28 24.54 24.7 24.74 24.72 24.61 23.3 24.4 21.87 24.24"/>
                  <polygon class="cls-2" points="22.77 24.41 23.35 23.96 23.8 24.54 23.22 24.97 22.77 24.41"/>
                </g>
                <g>
                  <path class="cls-2" d="m24.72,24.61l-.02.13c.47.06.95.14,1.42.22l1.42.24.02-.13-1.42-.24c-.47-.08-.95-.16-1.42-.22Z"/>
                  <polygon class="cls-2" points="25.62 24.81 26.21 24.4 26.64 24.99 26.05 25.4 25.62 24.81"/>
                </g>
                <g>
                  <path class="cls-2" d="m27.56,25.07l-.02.13c.94.18,1.88.35,2.82.55l.03-.13c-.94-.2-1.88-.37-2.82-.55Z"/>
                  <polygon class="cls-2" points="28.45 25.31 29.06 24.91 29.47 25.51 28.86 25.91 28.45 25.31"/>
                </g>
                <g>
                  <path class="cls-2" d="m30.38,25.63l-.03.13c.94.19,1.88.39,2.81.6l.03-.13c-.94-.21-1.87-.41-2.81-.6Z"/>
                  <polygon class="cls-2" points="31.27 25.88 31.88 25.49 32.28 26.1 31.67 26.48 31.27 25.88"/>
                </g>
                <g>
                  <polygon class="cls-2" points="33.2 26.23 33.17 26.36 35.97 26.98 36 26.85 33.2 26.23"/>
                  <polygon class="cls-2" points="34.08 26.49 34.7 26.11 35.09 26.72 34.47 27.1 34.08 26.49"/>
                </g>
                <g>
                  <polygon class="cls-2" points="36 26.85 35.97 26.98 38.78 27.61 38.81 27.47 36 26.85"/>
                  <polygon class="cls-2" points="36.89 27.12 37.5 26.73 37.9 27.34 37.28 27.73 36.89 27.12"/>
                </g>
                <g>
                  <path class="cls-2" d="m38.81,27.47l-.03.13c.94.21,1.87.41,2.81.6l.03-.13c-.94-.19-1.88-.39-2.81-.6Z"/>
                  <polygon class="cls-2" points="39.69 27.74 40.31 27.35 40.71 27.95 40.09 28.34 39.69 27.74"/>
                </g>
                <g>
                  <path class="cls-2" d="m41.62,28.07l-.03.13c.94.2,1.88.37,2.82.55l.02-.13c-.94-.18-1.88-.35-2.82-.55Z"/>
                  <polygon class="cls-2" points="42.51 28.32 43.11 27.92 43.52 28.52 42.92 28.92 42.51 28.32"/>
                </g>
                <g>
                  <path class="cls-2" d="m44.44,28.62l-.02.13,1.42.24c.47.08.95.16,1.42.22l.02-.14c-.47-.06-.95-.14-1.42-.22l-1.42-.24Z"/>
                  <polygon class="cls-2" points="45.33 28.85 45.93 28.43 46.35 29.02 45.76 29.44 45.33 28.85"/>
                </g>
                <g>
                  <polygon class="cls-2" points="47.27 29.09 47.25 29.23 48.68 29.43 50.11 29.59 50.12 29.46 48.7 29.3 47.27 29.09"/>
                  <polygon class="cls-2" points="48.17 29.29 48.75 28.86 49.2 29.42 48.62 29.87 48.17 29.29"/>
                </g>
                <g>
                  <polygon class="cls-2" points="50.12 29.46 50.11 29.59 50.82 29.67 51.54 29.73 52.98 29.83 52.98 29.7 51.55 29.59 50.84 29.54 50.12 29.46"/>
                  <polygon class="cls-2" points="51.03 29.62 51.59 29.15 52.06 29.7 51.51 30.17 51.03 29.62"/>
                </g>
                <g>
                  <path class="cls-2" d="m52.98,29.7v.14c.95.02,1.91.09,2.87.06v-.14c-.96.03-1.91-.04-2.87-.06Z"/>
                  <polygon class="cls-2" points="53.9 29.8 54.43 29.31 54.93 29.83 54.4 30.32 53.9 29.8"/>
                </g>
                <g>
                  <path class="cls-2" d="m55.85,29.76v.14c.48,0,.96,0,1.44-.03l1.44-.09v-.14s-1.44.09-1.44.09c-.48.02-.96.02-1.43.03Z"/>
                  <path class="cls-2" d="m56.77,29.81c.17-.17.33-.34.5-.52l.54.47-.49.54c-.18-.15-.36-.33-.54-.49Z"/>
                </g>
                <g>
                  <path class="cls-2" d="m58.72,29.63v.14c.49-.02.97-.09,1.44-.15.48-.06.95-.1,1.43-.19l-.02-.13c-.47.09-.95.12-1.42.19-.47.06-.95.13-1.43.15Z"/>
                  <polygon class="cls-2" points="59.64 29.62 60.09 29.05 60.67 29.49 60.22 30.06 59.64 29.62"/>
                </g>
                <g>
                  <path class="cls-2" d="m61.57,29.3l.02.13c.94-.18,1.89-.32,2.82-.59l-.03-.13c-.92.26-1.87.4-2.81.59Z"/>
                  <polygon class="cls-2" points="62.48 29.2 62.89 28.6 63.5 29.01 63.1 29.6 62.48 29.2"/>
                </g>
                <g>
                  <path class="cls-2" d="m64.38,28.71l.03.13c.46-.12.93-.22,1.39-.37l1.37-.45-.04-.13-1.36.45c-.46.14-.92.24-1.39.37Z"/>
                  <path class="cls-2" d="m65.28,28.55c.12-.21.24-.41.35-.63l.64.33-.35.65c-.21-.1-.43-.23-.64-.35Z"/>
                </g>
                <g>
                  <path class="cls-2" d="m67.13,27.9l.04.13c.23-.08.46-.14.68-.23l.67-.27,1.33-.54-.06-.12-1.33.54-.66.27c-.22.09-.45.15-.68.23Z"/>
                  <polygon class="cls-2" points="68.01 27.65 68.31 26.99 68.97 27.26 68.68 27.93 68.01 27.65"/>
                </g>
              </g>
              <g>
                <g>
                  <path class="cls-2" d="m2.12,31.37l.06.12,1.33-.54.66-.27c.22-.09.45-.15.68-.23l-.04-.13c-.23.08-.46.14-.68.23l-.67.27-1.33.54Z"/>
                  <polygon class="cls-2" points="3 31.09 3.29 30.42 3.96 30.7 3.67 31.37 3 31.09"/>
                </g>
                <g>
                  <path class="cls-2" d="m4.81,30.33l.04.13,1.36-.45c.46-.14.92-.24,1.39-.37l-.03-.13c-.46.12-.93.22-1.39.37l-1.37.45Z"/>
                  <path class="cls-2" d="m5.7,30.1l.35-.65c.21.1.43.23.64.35-.12.21-.24.41-.35.63l-.64-.33Z"/>
                </g>
                <g>
                  <path class="cls-2" d="m7.57,29.51l.03.13c.92-.26,1.87-.4,2.81-.59l-.02-.13c-.94.18-1.89.32-2.82.59Z"/>
                  <polygon class="cls-2" points="8.47 29.35 8.88 28.75 9.49 29.16 9.08 29.75 8.47 29.35"/>
                </g>
                <g>
                  <path class="cls-2" d="m10.38,28.92l.02.13c.47-.09.95-.12,1.42-.19.47-.06.95-.13,1.43-.15v-.14c-.49.02-.97.09-1.44.15-.48.06-.95.1-1.43.19Z"/>
                  <polygon class="cls-2" points="11.31 28.86 11.76 28.29 12.33 28.73 11.88 29.3 11.31 28.86"/>
                </g>
                <g>
                  <path class="cls-2" d="m13.24,28.58v.14s1.44-.09,1.44-.09c.48-.02.96-.02,1.43-.03v-.14c-.48,0-.96,0-1.44.03l-1.44.09Z"/>
                  <path class="cls-2" d="m14.17,28.59l.49-.54c.18.15.36.33.54.49-.17.17-.33.34-.5.52l-.54-.47Z"/>
                </g>
                <g>
                  <path class="cls-2" d="m16.12,28.46v.14c.96-.03,1.91.04,2.87.06v-.14c-.95-.02-1.91-.09-2.87-.06Z"/>
                  <polygon class="cls-2" points="17.04 28.52 17.57 28.03 18.08 28.56 17.55 29.05 17.04 28.52"/>
                </g>
                <g>
                  <polygon class="cls-2" points="19 28.52 18.99 28.66 20.42 28.76 21.14 28.82 21.85 28.9 21.87 28.76 21.15 28.68 20.43 28.63 19 28.52"/>
                  <polygon class="cls-2" points="19.91 28.66 20.47 28.19 20.94 28.73 20.39 29.2 19.91 28.66"/>
                </g>
                <g>
                  <polygon class="cls-2" points="21.87 28.76 21.85 28.9 23.28 29.06 24.7 29.26 24.72 29.13 23.3 28.92 21.87 28.76"/>
                  <polygon class="cls-2" points="22.77 28.93 23.35 28.49 23.8 29.06 23.22 29.49 22.77 28.93"/>
                </g>
                <g>
                  <path class="cls-2" d="m24.72,29.13l-.02.14c.47.06.95.14,1.42.22l1.42.24.02-.13-1.42-.24c-.47-.08-.95-.16-1.42-.22Z"/>
                  <polygon class="cls-2" points="25.62 29.33 26.21 28.92 26.64 29.51 26.05 29.92 25.62 29.33"/>
                </g>
                <g>
                  <path class="cls-2" d="m27.56,29.6l-.02.13c.94.18,1.88.35,2.82.55l.03-.13c-.94-.2-1.88-.37-2.82-.55Z"/>
                  <polygon class="cls-2" points="28.45 29.84 29.06 29.43 29.47 30.03 28.86 30.43 28.45 29.84"/>
                </g>
                <g>
                  <path class="cls-2" d="m30.38,30.15l-.03.13c.94.19,1.88.39,2.81.6l.03-.13c-.94-.21-1.87-.41-2.81-.6Z"/>
                  <polygon class="cls-2" points="31.27 30.4 31.88 30.01 32.28 30.62 31.67 31.01 31.27 30.4"/>
                </g>
                <g>
                  <polygon class="cls-2" points="33.2 30.75 33.17 30.88 35.97 31.5 36 31.37 33.2 30.75"/>
                  <polygon class="cls-2" points="34.08 31.01 34.7 30.63 35.09 31.24 34.47 31.62 34.08 31.01"/>
                </g>
                <g>
                  <polygon class="cls-2" points="36 31.37 35.97 31.5 38.78 32.13 38.81 31.99 36 31.37"/>
                  <polygon class="cls-2" points="36.89 31.64 37.5 31.25 37.9 31.86 37.28 32.25 36.89 31.64"/>
                </g>
                <g>
                  <path class="cls-2" d="m38.81,31.99l-.03.13c.94.21,1.87.41,2.81.6l.03-.13c-.94-.19-1.88-.39-2.81-.6Z"/>
                  <polygon class="cls-2" points="39.69 32.26 40.31 31.87 40.71 32.47 40.09 32.86 39.69 32.26"/>
                </g>
                <g>
                  <path class="cls-2" d="m41.62,32.59l-.03.13c.94.2,1.88.37,2.82.55l.02-.13c-.94-.18-1.88-.35-2.82-.55Z"/>
                  <polygon class="cls-2" points="42.51 32.84 43.11 32.44 43.52 33.04 42.92 33.44 42.51 32.84"/>
                </g>
                <g>
                  <path class="cls-2" d="m44.44,33.15l-.02.13,1.42.24c.47.08.95.16,1.42.22l.02-.14c-.47-.06-.95-.14-1.42-.22l-1.42-.24Z"/>
                  <polygon class="cls-2" points="45.33 33.37 45.93 32.95 46.35 33.54 45.76 33.96 45.33 33.37"/>
                </g>
                <g>
                  <polygon class="cls-2" points="47.27 33.61 47.25 33.75 48.68 33.95 50.11 34.11 50.12 33.98 48.7 33.82 47.27 33.61"/>
                  <polygon class="cls-2" points="48.17 33.81 48.75 33.38 49.2 33.94 48.62 34.39 48.17 33.81"/>
                </g>
                <g>
                  <polygon class="cls-2" points="50.12 33.98 50.11 34.11 50.82 34.19 51.54 34.25 52.98 34.35 52.98 34.22 51.55 34.11 50.84 34.06 50.12 33.98"/>
                  <polygon class="cls-2" points="51.03 34.14 51.59 33.67 52.06 34.22 51.51 34.69 51.03 34.14"/>
                </g>
                <g>
                  <path class="cls-2" d="m52.98,34.22v.14c.95.02,1.91.09,2.87.06v-.14c-.96.03-1.91-.04-2.87-.06Z"/>
                  <polygon class="cls-2" points="53.9 34.32 54.43 33.83 54.93 34.35 54.4 34.84 53.9 34.32"/>
                </g>
                <g>
                  <path class="cls-2" d="m55.85,34.28v.14c.48,0,.96,0,1.44-.03l1.44-.09v-.14s-1.44.09-1.44.09c-.48.02-.96.02-1.43.03Z"/>
                  <path class="cls-2" d="m56.77,34.33c.17-.17.33-.34.5-.52l.54.47-.49.54c-.18-.15-.36-.33-.54-.49Z"/>
                </g>
                <g>
                  <path class="cls-2" d="m58.72,34.16v.14c.49-.02.97-.09,1.44-.15.48-.06.95-.1,1.43-.19l-.02-.13c-.47.09-.95.12-1.42.19-.47.06-.95.13-1.43.15Z"/>
                  <polygon class="cls-2" points="59.64 34.14 60.09 33.57 60.67 34.01 60.22 34.58 59.64 34.14"/>
                </g>
                <g>
                  <path class="cls-2" d="m61.57,33.82l.02.13c.94-.18,1.89-.32,2.82-.59l-.03-.13c-.92.26-1.87.4-2.81.59Z"/>
                  <polygon class="cls-2" points="62.48 33.72 62.89 33.13 63.5 33.53 63.1 34.12 62.48 33.72"/>
                </g>
                <g>
                  <path class="cls-2" d="m64.38,33.23l.03.13c.46-.12.93-.22,1.39-.37l1.37-.45-.04-.13-1.36.45c-.46.14-.92.24-1.39.37Z"/>
                  <path class="cls-2" d="m65.28,33.07c.12-.21.24-.41.35-.63l.64.33-.35.65c-.21-.1-.43-.23-.64-.35Z"/>
                </g>
                <g>
                  <path class="cls-2" d="m67.13,32.42l.04.13c.23-.08.46-.14.68-.23l.67-.27,1.33-.54-.06-.12-1.33.54-.66.27c-.22.09-.45.15-.68.23Z"/>
                  <polygon class="cls-2" points="68.01 32.17 68.31 31.51 68.97 31.78 68.68 32.45 68.01 32.17"/>
                </g>
              </g>
              <g>
                <path class="cls-16" d="m1.63,28.05c1.04.49,2.02,1,2.96,1.54.36-1.02.77-2.04,1.24-3.09-.71.24-1.42.46-2.13.71l-2.07.85Z"/>
                <path class="cls-11" d="m5.83,26.5c.96.6,1.87,1.26,2.73,1.91.49-.98,1.04-1.92,1.63-2.9-.73.14-1.47.26-2.2.43-.72.19-1.45.36-2.17.57Z"/>
                <path class="cls-16" d="m10.19,25.51c.87.72,1.69,1.49,2.46,2.24.61-.91,1.27-1.79,1.97-2.68-.74.05-1.48.09-2.22.16-.74.1-1.48.17-2.21.29Z"/>
                <path class="cls-11" d="m14.63,25.06c.78.82,1.51,1.67,2.2,2.5.71-.83,1.45-1.65,2.24-2.47-.74-.02-1.47-.06-2.21-.07-.74.01-1.48.01-2.22.04Z"/>
                <path class="cls-16" d="m19.06,25.09c.69.89,1.34,1.8,1.96,2.69.78-.77,1.59-1.53,2.43-2.28l-2.19-.25-2.2-.16Z"/>
                <path class="cls-11" d="m23.45,25.5c.61.94,1.21,1.88,1.77,2.82.83-.72,1.68-1.43,2.55-2.14l-2.15-.37-2.17-.31Z"/>
                <path class="cls-16" d="m27.78,26.19c.56.97,1.11,1.94,1.64,2.9.87-.68,1.74-1.37,2.63-2.05l-2.13-.44-2.14-.41Z"/>
                <polygon class="cls-11" points="32.04 27.04 33.61 29.98 36.27 27.97 32.04 27.04"/>
                <polygon class="cls-16" points="36.27 27.97 37.82 30.92 40.46 28.9 36.27 27.97"/>
                <path class="cls-11" d="m40.46,28.9c.52.97,1.05,1.95,1.6,2.93.88-.69,1.75-1.39,2.6-2.09l-2.1-.4-2.1-.44Z"/>
                <path class="cls-16" d="m44.66,29.74c.55.95,1.11,1.91,1.7,2.87.86-.73,1.69-1.47,2.5-2.21l-2.1-.3-2.1-.36Z"/>
                <path class="cls-11" d="m48.85,30.4c.59.92,1.21,1.84,1.86,2.76.81-.79,1.59-1.57,2.34-2.37l-2.1-.16-2.1-.24Z"/>
                <path class="cls-16" d="m53.05,30.79c.65.87,1.34,1.75,2.07,2.61.75-.86,1.45-1.7,2.11-2.57-.7.02-1.39.02-2.09.04-.7-.01-1.4-.05-2.1-.07Z"/>
                <path class="cls-11" d="m57.24,30.82c.73.79,1.51,1.61,2.33,2.38.65-.94,1.26-1.85,1.81-2.8-.68.11-1.37.18-2.06.27-.69.07-1.39.1-2.08.15Z"/>
                <path class="cls-16" d="m61.38,30.41c.81.7,1.68,1.42,2.6,2.08.53-1.01,1.02-1.99,1.44-3-.66.2-1.34.35-2,.52-.67.15-1.36.26-2.04.39Z"/>
                <path class="cls-11" d="m65.42,29.49c.9.59,1.85,1.18,2.85,1.73.4-1.07.74-2.13,1.03-3.16l-1.92.78c-.65.23-1.31.43-1.97.65Z"/>
              </g>
            </g>
          </g>
        </g>
      </g>
    </g>
  </g>
</svg>